<svg version="1.1" id="Layer_1" xmlns="http://www.w3.org/2000/svg" xmlns:xlink="http://www.w3.org/1999/xlink" x="0px" y="0px"
	 width="100%" viewBox="0 0 1171 205" enable-background="new 0 0 1171 205" xml:space="preserve">
<path fill="#FEFEFE" opacity="1.000000" stroke="none" 
	d="
M868.000000,206.000000 
	C578.666687,206.000000 289.833344,206.000000 1.000000,206.000000 
	C1.000000,137.666672 1.000000,69.333336 1.000000,1.000000 
	C391.333344,1.000000 781.666687,1.000000 1172.000000,1.000000 
	C1172.000000,69.333336 1172.000000,137.666672 1172.000000,206.000000 
	C1070.833374,206.000000 969.666687,206.000000 868.000000,206.000000 
M20.997305,99.500000 
	C20.997305,121.260963 20.997305,143.021927 20.997305,164.715302 
	C31.668400,164.715302 41.746513,164.715302 52.249863,164.715302 
	C52.249863,144.359055 52.249863,124.288475 52.249863,104.250252 
	C71.449944,104.250252 90.217079,104.250252 109.436134,104.250252 
	C109.436134,124.573776 109.436134,144.651260 109.436134,164.740753 
	C119.997765,164.740753 130.102859,164.740753 140.039536,164.740753 
	C140.039536,117.594337 140.039536,70.709358 140.039536,23.924662 
	C129.584229,23.924662 119.534416,23.924662 109.006401,23.924662 
	C109.006401,42.092018 109.006401,59.828506 109.006401,77.492111 
	C89.775337,77.492111 71.039650,77.492111 51.918190,77.492111 
	C51.918190,59.394024 51.918190,41.634113 51.918190,23.760170 
	C41.431896,23.760170 31.337927,23.760170 20.997528,23.760170 
	C20.997528,48.855827 20.997528,73.677917 20.997305,99.500000 
M414.905975,100.829529 
	C414.905975,122.096817 414.905975,143.364105 414.905975,164.778198 
	C424.589020,164.778198 433.664337,164.778198 442.855865,164.778198 
	C442.855865,139.617279 443.295044,114.667282 442.653412,89.745117 
	C442.371704,78.802902 437.242523,69.366737 426.933624,64.158653 
	C416.562683,58.919235 405.535065,58.443584 394.407990,61.618389 
	C386.120972,63.982861 380.122345,69.645096 374.759155,76.444832 
	C368.259491,63.894474 357.686737,59.863892 344.780823,59.812057 
	C331.694611,59.759506 321.700867,65.637764 313.132507,76.668488 
	C313.132507,71.172165 313.132507,67.078133 313.132507,62.801464 
	C304.227753,62.801464 295.664581,62.801464 287.081177,62.801464 
	C287.081177,96.992691 287.081177,130.870392 287.081177,164.696823 
	C296.473083,164.696823 305.543091,164.696823 314.893158,164.696823 
	C314.893158,162.751831 314.893219,161.112823 314.893158,159.473816 
	C314.892578,141.650238 314.923187,123.826584 314.874146,106.003136 
	C314.857269,99.868614 315.932129,94.099800 319.712524,89.080818 
	C324.044464,83.329613 331.671631,80.801605 338.870789,82.529900 
	C346.242767,84.299683 349.960602,89.207649 350.161163,96.439011 
	C350.617981,112.908707 350.718231,129.388672 350.913513,145.865051 
	C350.987823,152.136185 350.925629,158.408920 350.925629,164.768860 
	C360.506042,164.768860 369.578247,164.768860 379.002228,164.768860 
	C379.002228,162.919968 379.000244,161.287338 379.002502,159.654724 
	C379.028290,141.165146 378.905273,122.673706 379.136139,104.186684 
	C379.278107,92.822311 384.171417,84.954895 391.607941,82.984291 
	C405.318481,79.351120 412.686707,84.715744 414.905975,100.829529 
M574.686462,131.655640 
	C577.064392,141.639496 582.723145,149.299118 590.804077,155.542633 
	C612.968384,172.667358 651.791382,171.029236 672.026917,159.081726 
	C687.316345,150.054535 693.356262,135.834335 691.949341,118.433105 
	C690.718140,103.204712 682.007263,93.269745 668.209290,87.972031 
	C658.939148,84.412758 649.228271,82.001892 639.716492,79.070999 
	C631.949646,76.677788 624.127747,74.445023 616.440857,71.817406 
	C611.318787,70.066513 608.074951,66.493401 608.044556,60.689220 
	C608.012756,54.622883 610.584290,50.013844 616.043274,47.370167 
	C625.605957,42.739140 635.413208,43.294830 645.140137,46.787411 
	C652.068787,49.275238 655.549011,54.725239 656.902039,61.721645 
	C657.145264,62.979156 657.303467,64.253090 657.550293,65.836464 
	C662.645203,65.836464 667.452454,65.836464 672.259644,65.836464 
	C677.194641,65.836464 682.129578,65.836464 687.007446,65.836464 
	C687.772095,49.549065 680.430237,35.358719 666.706848,28.389786 
	C644.933533,17.333004 622.441650,16.507366 600.407837,27.296787 
	C585.669128,34.513996 577.695129,46.854324 577.984619,63.824898 
	C578.262878,80.137306 587.177429,90.658813 601.297058,96.777061 
	C609.764893,100.446304 619.050415,102.188828 627.867615,105.102310 
	C637.265137,108.207527 647.259460,110.433945 655.687195,115.304070 
	C665.478333,120.962082 664.290588,134.669464 654.149109,139.766052 
	C641.917969,145.912781 629.098938,145.974777 616.586182,140.228882 
	C607.335327,135.980911 603.511658,127.978661 603.131531,118.268417 
	C592.915161,118.268417 583.146057,118.268417 572.833862,118.268417 
	C573.388977,122.685135 573.902893,126.774063 574.686462,131.655640 
M1045.863647,147.586594 
	C1053.499512,159.646744 1064.385986,166.701920 1078.647583,167.501495 
	C1092.520630,168.279297 1105.275757,165.400452 1114.429688,153.087189 
	C1114.429688,157.003113 1114.429688,160.919022 1114.429688,164.754333 
	C1123.473999,164.754333 1132.074463,164.754333 1140.712646,164.754333 
	C1140.712646,117.619446 1140.712646,70.734215 1140.712646,23.801777 
	C1131.342041,23.801777 1122.264771,23.801777 1112.716064,23.801777 
	C1112.716064,40.798756 1112.716064,57.487164 1112.716064,73.365685 
	C1108.466309,70.165352 1104.521851,66.153358 1099.759033,63.791584 
	C1080.768677,54.374508 1056.312866,61.370361 1045.621582,79.831223 
	C1032.823486,101.930298 1033.861694,124.569328 1045.863647,147.586594 
M798.929993,75.717865 
	C791.946167,60.985287 774.144653,58.307663 759.951172,60.517097 
	C749.961670,62.072128 742.496887,67.918648 735.812988,77.241287 
	C735.812988,58.447731 735.812988,41.138142 735.812988,23.872318 
	C726.138916,23.872318 717.095398,23.872318 707.953735,23.872318 
	C707.953735,71.012466 707.953735,117.764587 707.953735,164.648407 
	C717.326416,164.648407 726.520996,164.648407 735.905945,164.648407 
	C735.905945,146.318802 735.774780,128.343384 735.991577,110.372192 
	C736.051086,105.436562 736.581665,100.355972 737.892273,95.617462 
	C740.610901,85.788528 748.821594,81.007721 759.918579,82.032364 
	C768.944458,82.865768 774.443848,88.295380 774.916077,98.837723 
	C775.653198,115.294411 775.524353,131.790497 775.723206,148.270355 
	C775.788879,153.715088 775.733521,159.161301 775.733521,164.778000 
	C785.262390,164.778000 794.339233,164.778000 803.630981,164.778000 
	C803.724304,163.953629 803.857361,163.326935 803.857239,162.700287 
	C803.851624,141.713547 804.241577,120.714409 803.605408,99.746475 
	C803.368408,91.936386 800.727905,84.199226 798.929993,75.717865 
M908.479187,61.855095 
	C902.443237,64.898605 895.604309,66.969429 890.520508,71.166336 
	C874.702026,84.225143 869.581665,101.809311 871.914978,121.743935 
	C873.970093,139.301804 881.433105,153.887650 898.041138,161.564880 
	C917.135620,170.391449 936.451904,170.851379 954.552002,158.556961 
	C963.344604,152.584549 968.390076,143.746780 971.364319,133.155151 
	C963.708618,133.155151 956.717102,133.069458 949.731567,133.235672 
	C948.501709,133.264923 946.774597,134.020477 946.162231,134.996185 
	C940.693665,143.709244 932.513000,146.612976 922.746948,146.476089 
	C908.267029,146.273102 898.891174,135.723755 900.230225,120.532257 
	C924.412903,120.532257 948.644409,120.532257 973.367126,120.532257 
	C974.035767,103.058517 971.016052,87.199959 958.954712,74.404663 
	C945.211914,59.825466 927.937561,57.686565 908.479187,61.855095 
M460.813171,107.299393 
	C460.831360,111.784531 460.478119,116.307716 460.933014,120.748108 
	C462.732208,138.309265 469.819672,153.061615 486.258636,161.079391 
	C505.186066,170.310867 524.450195,170.948929 542.811890,159.130569 
	C552.124207,153.136703 557.275635,144.045059 560.483948,133.158295 
	C552.781982,133.158295 545.790771,133.072784 538.805481,133.238663 
	C537.576294,133.267853 535.849670,134.021423 535.238098,134.996002 
	C529.894958,143.510406 521.938965,146.486282 512.337097,146.491318 
	C497.635010,146.499039 487.983978,135.925583 489.297821,120.370445 
	C513.591309,120.370445 537.948547,120.370445 562.241272,120.370445 
	C564.350098,93.059387 551.364136,64.041672 519.223389,60.149097 
	C489.187469,56.511440 464.127899,76.404037 460.813171,107.299393 
M204.294327,60.667126 
	C185.598404,63.516514 172.413391,73.659988 165.625427,91.241905 
	C159.909210,106.047897 159.953156,121.375000 165.548828,136.189133 
	C178.781815,171.222580 219.989746,173.372910 242.429535,161.072754 
	C272.951172,144.342560 272.781891,101.076797 258.163757,80.718147 
	C244.956314,62.324165 226.323334,58.085575 204.294327,60.667126 
M1018.980103,136.500000 
	C1018.980103,98.946175 1018.980103,61.392349 1018.980103,23.826450 
	C1009.275024,23.826450 1000.213806,23.826450 991.206604,23.826450 
	C991.206604,71.035828 991.206604,117.904312 991.206604,164.704773 
	C1000.598877,164.704773 1009.668152,164.704773 1018.980103,164.704773 
	C1018.980103,155.438553 1018.980103,146.469284 1018.980103,136.500000 
M826.001160,133.500000 
	C826.001160,143.923050 826.001160,154.346085 826.001160,164.718933 
	C835.659790,164.718933 844.731384,164.718933 853.778687,164.718933 
	C853.778687,130.541794 853.778687,96.646706 853.778687,62.825478 
	C844.429321,62.825478 835.366638,62.825478 826.001221,62.825478 
	C826.001221,86.253677 826.001221,109.376839 826.001160,133.500000 
M843.472961,46.855667 
	C846.908875,46.855667 850.344849,46.855667 853.878906,46.855667 
	C853.878906,38.815521 853.878906,31.382534 853.878906,23.704746 
	C844.598755,23.704746 835.517700,23.704746 825.985474,23.704746 
	C825.985474,27.681921 825.985413,31.466919 825.985413,35.251915 
	C825.985413,39.018486 825.985474,42.785053 825.985474,46.855656 
	C831.887573,46.855656 837.184021,46.855656 843.472961,46.855667 
z"/>
<path fill="#1C1C1C" opacity="1.000000" stroke="none" 
	d="
M20.997417,99.000000 
	C20.997528,73.677917 20.997528,48.855827 20.997528,23.760170 
	C31.337927,23.760170 41.431896,23.760170 51.918190,23.760170 
	C51.918190,41.634113 51.918190,59.394024 51.918190,77.492111 
	C71.039650,77.492111 89.775337,77.492111 109.006401,77.492111 
	C109.006401,59.828506 109.006401,42.092018 109.006401,23.924662 
	C119.534416,23.924662 129.584229,23.924662 140.039536,23.924662 
	C140.039536,70.709358 140.039536,117.594337 140.039536,164.740753 
	C130.102859,164.740753 119.997765,164.740753 109.436134,164.740753 
	C109.436134,144.651260 109.436134,124.573776 109.436134,104.250252 
	C90.217079,104.250252 71.449944,104.250252 52.249863,104.250252 
	C52.249863,124.288475 52.249863,144.359055 52.249863,164.715302 
	C41.746513,164.715302 31.668400,164.715302 20.997305,164.715302 
	C20.997305,143.021927 20.997305,121.260963 20.997417,99.000000 
z"/>
<path fill="#202020" opacity="1.000000" stroke="none" 
	d="
M414.881958,100.370789 
	C412.686707,84.715744 405.318481,79.351120 391.607941,82.984291 
	C384.171417,84.954895 379.278107,92.822311 379.136139,104.186684 
	C378.905273,122.673706 379.028290,141.165146 379.002502,159.654724 
	C379.000244,161.287338 379.002228,162.919968 379.002228,164.768860 
	C369.578247,164.768860 360.506042,164.768860 350.925629,164.768860 
	C350.925629,158.408920 350.987823,152.136185 350.913513,145.865051 
	C350.718231,129.388672 350.617981,112.908707 350.161163,96.439011 
	C349.960602,89.207649 346.242767,84.299683 338.870789,82.529900 
	C331.671631,80.801605 324.044464,83.329613 319.712524,89.080818 
	C315.932129,94.099800 314.857269,99.868614 314.874146,106.003136 
	C314.923187,123.826584 314.892578,141.650238 314.893158,159.473816 
	C314.893219,161.112823 314.893158,162.751831 314.893158,164.696823 
	C305.543091,164.696823 296.473083,164.696823 287.081177,164.696823 
	C287.081177,130.870392 287.081177,96.992691 287.081177,62.801464 
	C295.664581,62.801464 304.227753,62.801464 313.132507,62.801464 
	C313.132507,67.078133 313.132507,71.172165 313.132507,76.668488 
	C321.700867,65.637764 331.694611,59.759506 344.780823,59.812057 
	C357.686737,59.863892 368.259491,63.894474 374.759155,76.444832 
	C380.122345,69.645096 386.120972,63.982861 394.407990,61.618389 
	C405.535065,58.443584 416.562683,58.919235 426.933624,64.158653 
	C437.242523,69.366737 442.371704,78.802902 442.653412,89.745117 
	C443.295044,114.667282 442.855865,139.617279 442.855865,164.778198 
	C433.664337,164.778198 424.589020,164.778198 414.905975,164.778198 
	C414.905975,143.364105 414.905975,122.096817 414.881958,100.370789 
z"/>
<path fill="#242424" opacity="1.000000" stroke="none" 
	d="
M574.551636,131.259308 
	C573.902893,126.774063 573.388977,122.685135 572.833862,118.268417 
	C583.146057,118.268417 592.915161,118.268417 603.131531,118.268417 
	C603.511658,127.978661 607.335327,135.980911 616.586182,140.228882 
	C629.098938,145.974777 641.917969,145.912781 654.149109,139.766052 
	C664.290588,134.669464 665.478333,120.962082 655.687195,115.304070 
	C647.259460,110.433945 637.265137,108.207527 627.867615,105.102310 
	C619.050415,102.188828 609.764893,100.446304 601.297058,96.777061 
	C587.177429,90.658813 578.262878,80.137306 577.984619,63.824898 
	C577.695129,46.854324 585.669128,34.513996 600.407837,27.296787 
	C622.441650,16.507366 644.933533,17.333004 666.706848,28.389786 
	C680.430237,35.358719 687.772095,49.549065 687.007446,65.836464 
	C682.129578,65.836464 677.194641,65.836464 672.259644,65.836464 
	C667.452454,65.836464 662.645203,65.836464 657.550293,65.836464 
	C657.303467,64.253090 657.145264,62.979156 656.902039,61.721645 
	C655.549011,54.725239 652.068787,49.275238 645.140137,46.787411 
	C635.413208,43.294830 625.605957,42.739140 616.043274,47.370167 
	C610.584290,50.013844 608.012756,54.622883 608.044556,60.689220 
	C608.074951,66.493401 611.318787,70.066513 616.440857,71.817406 
	C624.127747,74.445023 631.949646,76.677788 639.716492,79.070999 
	C649.228271,82.001892 658.939148,84.412758 668.209290,87.972031 
	C682.007263,93.269745 690.718140,103.204712 691.949341,118.433105 
	C693.356262,135.834335 687.316345,150.054535 672.026917,159.081726 
	C651.791382,171.029236 612.968384,172.667358 590.804077,155.542633 
	C582.723145,149.299118 577.064392,141.639496 574.551636,131.259308 
z"/>
<path fill="#272727" opacity="1.000000" stroke="none" 
	d="
M1045.654663,147.287140 
	C1033.861694,124.569328 1032.823486,101.930298 1045.621582,79.831223 
	C1056.312866,61.370361 1080.768677,54.374508 1099.759033,63.791584 
	C1104.521851,66.153358 1108.466309,70.165352 1112.716064,73.365685 
	C1112.716064,57.487164 1112.716064,40.798756 1112.716064,23.801777 
	C1122.264771,23.801777 1131.342041,23.801777 1140.712646,23.801777 
	C1140.712646,70.734215 1140.712646,117.619446 1140.712646,164.754333 
	C1132.074463,164.754333 1123.473999,164.754333 1114.429688,164.754333 
	C1114.429688,160.919022 1114.429688,157.003113 1114.429688,153.087189 
	C1105.275757,165.400452 1092.520630,168.279297 1078.647583,167.501495 
	C1064.385986,166.701920 1053.499512,159.646744 1045.654663,147.287140 
M1113.222412,105.382797 
	C1111.712280,100.680145 1110.979004,95.524719 1108.550049,91.357666 
	C1100.461060,77.480392 1079.028442,77.433678 1070.356079,90.944542 
	C1062.442871,103.272789 1063.178955,125.727890 1071.878662,137.394333 
	C1082.278076,151.340103 1103.268799,149.063385 1110.186157,133.156509 
	C1113.929321,124.548843 1114.570435,115.489647 1113.222412,105.382797 
z"/>
<path fill="#252525" opacity="1.000000" stroke="none" 
	d="
M799.056641,76.073341 
	C800.727905,84.199226 803.368408,91.936386 803.605408,99.746475 
	C804.241577,120.714409 803.851624,141.713547 803.857239,162.700287 
	C803.857361,163.326935 803.724304,163.953629 803.630981,164.778000 
	C794.339233,164.778000 785.262390,164.778000 775.733521,164.778000 
	C775.733521,159.161301 775.788879,153.715088 775.723206,148.270355 
	C775.524353,131.790497 775.653198,115.294411 774.916077,98.837723 
	C774.443848,88.295380 768.944458,82.865768 759.918579,82.032364 
	C748.821594,81.007721 740.610901,85.788528 737.892273,95.617462 
	C736.581665,100.355972 736.051086,105.436562 735.991577,110.372192 
	C735.774780,128.343384 735.905945,146.318802 735.905945,164.648407 
	C726.520996,164.648407 717.326416,164.648407 707.953735,164.648407 
	C707.953735,117.764587 707.953735,71.012466 707.953735,23.872318 
	C717.095398,23.872318 726.138916,23.872318 735.812988,23.872318 
	C735.812988,41.138142 735.812988,58.447731 735.812988,77.241287 
	C742.496887,67.918648 749.961670,62.072128 759.951172,60.517097 
	C774.144653,58.307663 791.946167,60.985287 799.056641,76.073341 
z"/>
<path fill="#282828" opacity="1.000000" stroke="none" 
	d="
M908.870605,61.720379 
	C927.937561,57.686565 945.211914,59.825466 958.954712,74.404663 
	C971.016052,87.199959 974.035767,103.058517 973.367126,120.532257 
	C948.644409,120.532257 924.412903,120.532257 900.230225,120.532257 
	C898.891174,135.723755 908.267029,146.273102 922.746948,146.476089 
	C932.513000,146.612976 940.693665,143.709244 946.162231,134.996185 
	C946.774597,134.020477 948.501709,133.264923 949.731567,133.235672 
	C956.717102,133.069458 963.708618,133.155151 971.364319,133.155151 
	C968.390076,143.746780 963.344604,152.584549 954.552002,158.556961 
	C936.451904,170.851379 917.135620,170.391449 898.041138,161.564880 
	C881.433105,153.887650 873.970093,139.301804 871.914978,121.743935 
	C869.581665,101.809311 874.702026,84.225143 890.520508,71.166336 
	C895.604309,66.969429 902.443237,64.898605 908.870605,61.720379 
M922.500000,102.840286 
	C929.923279,102.840286 937.346558,102.840286 944.803528,102.840286 
	C943.434021,87.526154 934.758606,80.118156 919.857910,81.078255 
	C908.564087,81.805946 899.589172,91.192604 900.154785,102.840279 
	C907.253113,102.840279 914.376587,102.840279 922.500000,102.840286 
z"/>
<path fill="#232323" opacity="1.000000" stroke="none" 
	d="
M460.850983,106.861855 
	C464.127899,76.404037 489.187469,56.511440 519.223389,60.149097 
	C551.364136,64.041672 564.350098,93.059387 562.241272,120.370445 
	C537.948547,120.370445 513.591309,120.370445 489.297821,120.370445 
	C487.983978,135.925583 497.635010,146.499039 512.337097,146.491318 
	C521.938965,146.486282 529.894958,143.510406 535.238098,134.996002 
	C535.849670,134.021423 537.576294,133.267853 538.805481,133.238663 
	C545.790771,133.072784 552.781982,133.158295 560.483948,133.158295 
	C557.275635,144.045059 552.124207,153.136703 542.811890,159.130569 
	C524.450195,170.948929 505.186066,170.310867 486.258636,161.079391 
	C469.819672,153.061615 462.732208,138.309265 460.933014,120.748108 
	C460.478119,116.307716 460.831360,111.784531 460.850983,106.861855 
M495.424438,86.919701 
	C491.408295,91.337509 488.947540,96.364204 488.929504,102.470726 
	C504.177002,102.470726 519.026611,102.470726 534.215027,102.470726 
	C532.485962,93.830658 530.176575,86.012199 521.319153,82.754402 
	C512.313965,79.442276 503.693146,80.267845 495.424438,86.919701 
z"/>
<path fill="#1F1F1F" opacity="1.000000" stroke="none" 
	d="
M204.730530,60.575043 
	C226.323334,58.085575 244.956314,62.324165 258.163757,80.718147 
	C272.781891,101.076797 272.951172,144.342560 242.429535,161.072754 
	C219.989746,173.372910 178.781815,171.222580 165.548828,136.189133 
	C159.953156,121.375000 159.909210,106.047897 165.625427,91.241905 
	C172.413391,73.659988 185.598404,63.516514 204.730530,60.575043 
M192.012863,97.710838 
	C188.821365,109.241425 188.724899,120.740791 192.947647,132.014481 
	C196.387848,141.198975 203.239197,146.134827 213.084915,146.439514 
	C224.586746,146.795471 231.898560,142.273605 236.095688,132.461319 
	C240.319153,122.587440 240.374847,112.285858 238.164398,102.073914 
	C237.175598,97.505768 235.299774,92.668671 232.440735,89.047829 
	C221.367310,75.023804 199.732651,79.441261 192.012863,97.710838 
z"/>
<path fill="#272727" opacity="1.000000" stroke="none" 
	d="
M1018.980103,137.000000 
	C1018.980103,146.469284 1018.980103,155.438553 1018.980103,164.704773 
	C1009.668152,164.704773 1000.598877,164.704773 991.206604,164.704773 
	C991.206604,117.904312 991.206604,71.035828 991.206604,23.826450 
	C1000.213806,23.826450 1009.275024,23.826450 1018.980103,23.826450 
	C1018.980103,61.392349 1018.980103,98.946175 1018.980103,137.000000 
z"/>
<path fill="#242424" opacity="1.000000" stroke="none" 
	d="
M826.001221,133.000000 
	C826.001221,109.376839 826.001221,86.253677 826.001221,62.825478 
	C835.366638,62.825478 844.429321,62.825478 853.778687,62.825478 
	C853.778687,96.646706 853.778687,130.541794 853.778687,164.718933 
	C844.731384,164.718933 835.659790,164.718933 826.001160,164.718933 
	C826.001160,154.346085 826.001160,143.923050 826.001221,133.000000 
z"/>
<path fill="#2C2C2C" opacity="1.000000" stroke="none" 
	d="
M842.976685,46.855659 
	C837.184021,46.855656 831.887573,46.855656 825.985474,46.855656 
	C825.985474,42.785053 825.985413,39.018486 825.985413,35.251915 
	C825.985413,31.466919 825.985474,27.681921 825.985474,23.704746 
	C835.517700,23.704746 844.598755,23.704746 853.878906,23.704746 
	C853.878906,31.382534 853.878906,38.815521 853.878906,46.855667 
	C850.344849,46.855667 846.908875,46.855667 842.976685,46.855659 
z"/>
<path fill="#FDFDFD" opacity="1.000000" stroke="none" 
	d="
M1113.290039,105.818451 
	C1114.570435,115.489647 1113.929321,124.548843 1110.186157,133.156509 
	C1103.268799,149.063385 1082.278076,151.340103 1071.878662,137.394333 
	C1063.178955,125.727890 1062.442871,103.272789 1070.356079,90.944542 
	C1079.028442,77.433678 1100.461060,77.480392 1108.550049,91.357666 
	C1110.979004,95.524719 1111.712280,100.680145 1113.290039,105.818451 
z"/>
<path fill="#F9F9F9" opacity="1.000000" stroke="none" 
	d="
M922.000061,102.840286 
	C914.376587,102.840279 907.253113,102.840279 900.154785,102.840279 
	C899.589172,91.192604 908.564087,81.805946 919.857910,81.078255 
	C934.758606,80.118156 943.434021,87.526154 944.803528,102.840286 
	C937.346558,102.840286 929.923279,102.840286 922.000061,102.840286 
z"/>
<path fill="#FAFAFA" opacity="1.000000" stroke="none" 
	d="
M495.684723,86.664703 
	C503.693146,80.267845 512.313965,79.442276 521.319153,82.754402 
	C530.176575,86.012199 532.485962,93.830658 534.215027,102.470726 
	C519.026611,102.470726 504.177002,102.470726 488.929504,102.470726 
	C488.947540,96.364204 491.408295,91.337509 495.684723,86.664703 
z"/>
<path fill="#FDFDFD" opacity="1.000000" stroke="none" 
	d="
M192.117798,97.329140 
	C199.732651,79.441261 221.367310,75.023804 232.440735,89.047829 
	C235.299774,92.668671 237.175598,97.505768 238.164398,102.073914 
	C240.374847,112.285858 240.319153,122.587440 236.095688,132.461319 
	C231.898560,142.273605 224.586746,146.795471 213.084915,146.439514 
	C203.239197,146.134827 196.387848,141.198975 192.947647,132.014481 
	C188.724899,120.740791 188.821365,109.241425 192.117798,97.329140 
z"/>
</svg>